<svg width="478" height="145" viewBox="0 0 478 145" fill="none" xmlns="http://www.w3.org/2000/svg">
<path fill-rule="evenodd" clip-rule="evenodd" d="M296.445 113.112C268.676 133.58 228.428 144.5 193.775 144.5C145.185 144.5 101.442 126.529 68.3493 96.6387C65.7493 94.2883 68.0789 91.085 71.199 92.9154C106.913 113.695 151.072 126.196 196.687 126.196C227.45 126.196 261.292 119.831 292.409 106.623C297.11 104.626 301.041 109.701 296.445 113.112Z" fill="#FF9900"/>
<path fill-rule="evenodd" clip-rule="evenodd" d="M307.989 99.9043C304.453 95.3699 284.526 97.7619 275.582 98.8227C272.857 99.1555 272.441 96.7843 274.896 95.0787C290.766 83.909 316.808 87.133 319.845 90.877C322.882 94.6419 319.055 120.746 304.141 133.205C301.853 135.119 299.669 134.1 300.688 131.562C304.037 123.201 311.546 104.46 307.989 99.9043Z" fill="#FF9900"/>
<path fill-rule="evenodd" clip-rule="evenodd" d="M276.206 16.2251V5.36735C276.206 3.72414 277.454 2.62173 278.952 2.62173H327.562C329.122 2.62173 330.37 3.74494 330.37 5.36735V14.6651C330.349 16.2251 329.038 18.2635 326.709 21.4875L301.52 57.4511C310.88 57.2223 320.76 58.6159 329.246 63.4C331.16 64.4816 331.68 66.0624 331.826 67.6224V79.2081C331.826 80.7889 330.078 82.6402 328.248 81.6834C313.293 73.8417 293.428 72.9889 276.892 81.7665C275.207 82.6818 273.439 80.8513 273.439 79.2705V68.2672C273.439 66.4992 273.46 63.4832 275.228 60.7999L304.411 18.9499H279.014C277.454 18.9499 276.206 17.8475 276.206 16.2251Z" fill="black"/>
<path fill-rule="evenodd" clip-rule="evenodd" d="M98.8842 83.9714H84.0952C82.6808 83.8674 81.5576 82.8066 81.4536 81.4545V5.55457C81.4536 4.03616 82.7224 2.82973 84.3032 2.82973H98.0938C99.529 2.89209 100.673 3.99454 100.777 5.36736V15.2891H101.047C104.646 5.70016 111.406 1.22811 120.516 1.22811C129.773 1.22811 135.555 5.70016 139.715 15.2891C143.293 5.70016 151.426 1.22811 160.141 1.22811C166.339 1.22811 173.12 3.78654 177.259 9.5274C181.939 15.9131 180.983 25.19 180.983 33.3229L180.962 81.2257C180.962 82.7442 179.693 83.9714 178.112 83.9714H163.344C161.867 83.8674 160.682 82.6818 160.682 81.2257V40.9981C160.682 37.7949 160.973 29.8076 160.266 26.7708C159.163 21.6747 155.856 20.2395 151.571 20.2395C147.994 20.2395 144.249 22.6315 142.731 26.4588C141.213 30.286 141.358 36.6925 141.358 40.9981V81.2257C141.358 82.7442 140.089 83.9714 138.509 83.9714H123.74C122.243 83.8674 121.078 82.6818 121.078 81.2257L121.057 40.9981C121.057 32.5324 122.451 20.0731 111.947 20.0731C101.318 20.0731 101.734 32.2204 101.734 40.9981V81.2257C101.734 82.7442 100.465 83.9714 98.8842 83.9714Z" fill="black"/>
<path fill-rule="evenodd" clip-rule="evenodd" d="M372.22 1.22811C394.164 1.22811 406.041 20.0731 406.041 44.035C406.041 67.1856 392.916 85.5522 372.22 85.5522C350.671 85.5522 338.939 66.7072 338.939 43.2237C338.939 19.5947 350.816 1.22811 372.22 1.22811ZM372.345 16.7243C361.445 16.7243 360.759 31.5756 360.759 40.8317C360.759 50.1086 360.613 69.9104 372.22 69.9104C383.681 69.9104 384.222 53.9359 384.222 44.2014C384.222 37.7949 383.951 30.1404 382.017 24.0667C380.353 18.7835 377.045 16.7243 372.345 16.7243Z" fill="black"/>
<path fill-rule="evenodd" clip-rule="evenodd" d="M434.496 83.9714H419.769C418.292 83.8674 417.107 82.6818 417.107 81.2257L417.086 5.30496C417.211 3.91134 418.438 2.82973 419.936 2.82973H433.643C434.933 2.89209 435.993 3.76575 436.285 4.95136V16.5579H436.555C440.694 6.17857 446.497 1.22811 456.71 1.22811C463.346 1.22811 469.815 3.62014 473.975 10.1722C477.843 16.2459 477.843 26.4588 477.843 33.8012V81.5794C477.677 82.9106 476.45 83.9714 474.994 83.9714H460.163C458.811 83.8674 457.688 82.869 457.542 81.5794V40.3533C457.542 32.054 458.499 19.9067 448.286 19.9067C444.688 19.9067 441.381 22.3195 439.737 25.9804C437.657 30.6188 437.387 35.2365 437.387 40.3533V81.2257C437.366 82.7442 436.077 83.9714 434.496 83.9714Z" fill="black"/>
<path fill-rule="evenodd" clip-rule="evenodd" d="M237.455 47.7166C237.455 53.4782 237.601 58.2831 234.689 63.4C232.339 67.56 228.594 70.1184 224.455 70.1184C218.777 70.1184 215.449 65.792 215.449 59.4063C215.449 46.8014 226.743 44.5134 237.455 44.5134V47.7166ZM252.369 83.7634C251.392 84.637 249.977 84.6994 248.875 84.117C243.966 80.0401 243.071 78.1473 240.388 74.2577C232.276 82.5362 226.514 85.0114 216.01 85.0114C203.551 85.0114 193.879 77.3361 193.879 61.9648C193.879 49.963 200.369 41.7885 209.645 37.7949C217.674 34.2588 228.886 33.6349 237.455 32.6572V30.7436C237.455 27.2284 237.726 23.0683 235.646 20.0315C233.857 17.3067 230.404 16.1835 227.346 16.1835C221.71 16.1835 216.697 19.0747 215.47 25.0652C215.22 26.3964 214.242 27.7068 212.89 27.7692L198.559 26.23C197.353 25.9596 196.001 24.982 196.354 23.1307C199.641 5.74177 215.366 0.500099 229.426 0.500099C236.623 0.500099 246.025 2.41373 251.704 7.86338C258.9 14.5818 258.214 23.5467 258.214 33.302V56.3487C258.214 63.2752 261.084 66.312 263.788 70.056C264.724 71.3872 264.932 72.9888 263.726 73.9873C260.71 76.5041 255.343 81.1841 252.39 83.805L252.369 83.7633" fill="black"/>
<path fill-rule="evenodd" clip-rule="evenodd" d="M43.5765 47.7167C43.5765 53.4784 43.722 58.2832 40.81 63.4001C38.4596 67.5601 34.7364 70.1185 30.5763 70.1185C24.8978 70.1185 21.5906 65.7921 21.5906 59.4064C21.5906 46.8015 32.8851 44.5135 43.5765 44.5135V47.7167ZM58.4902 83.7635C57.5126 84.6371 56.0982 84.6995 54.9958 84.1171C50.0869 80.0402 49.2133 78.1474 46.5093 74.2578C38.3972 82.5363 32.6563 85.0115 22.1314 85.0115C9.69288 85.0115 0 77.3362 0 61.9649C0 49.9631 6.51046 41.7887 15.7666 37.795C23.7954 34.259 35.0068 33.635 43.5765 32.6574V30.7437C43.5765 27.2285 43.8469 23.0684 41.7876 20.0316C39.978 17.3068 36.5252 16.1836 33.4883 16.1836C27.8515 16.1836 22.8178 19.0748 21.5906 25.0653C21.341 26.3965 20.3634 27.7069 19.0322 27.7693L4.68005 26.2301C3.47363 25.9597 2.14242 24.9821 2.47522 23.1309C5.78246 5.74189 21.4866 0.500214 35.5476 0.500214C42.7444 0.500214 52.1461 2.41384 57.8246 7.86349C65.0215 14.582 64.335 23.5469 64.335 33.3022V56.3488C64.335 63.2753 67.2055 66.3121 69.9095 70.0561C70.8663 71.3873 71.0743 72.989 69.8679 73.9874C66.8519 76.5042 61.4854 81.1843 58.5318 83.8051L58.4902 83.7634" fill="black"/>
</svg>
