<svg width="426" height="145" viewBox="0 0 426 145" fill="none" xmlns="http://www.w3.org/2000/svg">
<path d="M181.174 74.3469C181.174 94.3347 165.537 109.063 146.348 109.063C127.158 109.063 111.521 94.3347 111.521 74.3469C111.521 54.2182 127.158 39.6304 146.348 39.6304C165.537 39.6304 181.174 54.2182 181.174 74.3469ZM165.928 74.3469C165.928 61.8565 156.866 53.3104 146.348 53.3104C135.829 53.3104 126.767 61.8565 126.767 74.3469C126.767 86.7121 135.829 95.3834 146.348 95.3834C156.866 95.3834 165.928 86.6965 165.928 74.3469Z" fill="#EA4335"/>
<path d="M256.305 74.3469C256.305 94.3347 240.668 109.063 221.478 109.063C202.289 109.063 186.652 94.3347 186.652 74.3469C186.652 54.2338 202.289 39.6304 221.478 39.6304C240.668 39.6304 256.305 54.2182 256.305 74.3469ZM241.059 74.3469C241.059 61.8565 231.997 53.3104 221.478 53.3104C210.96 53.3104 201.898 61.8565 201.898 74.3469C201.898 86.7121 210.96 95.3834 221.478 95.3834C231.997 95.3834 241.059 86.6965 241.059 74.3469Z" fill="#FBBC05"/>
<path d="M328.304 41.7278V104.055C328.304 129.693 313.184 140.164 295.309 140.164C278.483 140.164 268.356 128.91 264.537 119.707L277.81 114.182C280.174 119.832 285.965 126.5 295.294 126.5C306.735 126.5 313.826 119.441 313.826 106.152V101.159H313.294C309.881 105.369 303.308 109.048 295.012 109.048C277.654 109.048 261.751 93.9278 261.751 74.4721C261.751 54.8756 277.654 39.6304 295.012 39.6304C303.292 39.6304 309.866 43.3086 313.294 47.3938H313.826V41.7434H328.304V41.7278ZM314.906 74.4721C314.906 62.2478 306.751 53.3104 296.374 53.3104C285.855 53.3104 277.043 62.2478 277.043 74.4721C277.043 86.5712 285.855 95.3834 296.374 95.3834C306.751 95.3834 314.906 86.5712 314.906 74.4721Z" fill="#4285F4"/>
<path d="M352.174 5.1958V106.935H337.305V5.1958H352.174Z" fill="#34A853"/>
<path d="M410.118 85.773L421.951 93.6617C418.132 99.3121 408.928 109.048 393.026 109.048C373.304 109.048 358.575 93.8026 358.575 74.3313C358.575 53.686 373.429 39.6147 391.32 39.6147C409.335 39.6147 418.147 53.9521 421.027 61.7L422.608 65.6443L376.2 84.8652C379.753 91.8304 385.278 95.3834 393.026 95.3834C400.789 95.3834 406.173 91.5643 410.118 85.773ZM373.695 73.2826L404.718 60.4008C403.012 56.0652 397.878 53.0443 391.836 53.0443C384.088 53.0443 373.304 59.8843 373.695 73.2826Z" fill="#EA4335"/>
<path d="M55.2365 65.3158V50.5871H104.87C105.355 53.1541 105.605 56.1906 105.605 59.4776C105.605 70.528 102.584 84.1924 92.8487 93.928C83.3791 103.789 71.28 109.048 55.2522 109.048C25.5443 109.048 0.563477 84.8497 0.563477 55.1419C0.563477 25.4341 25.5443 1.23584 55.2522 1.23584C71.687 1.23584 83.3948 7.68454 92.1913 16.0898L81.7983 26.4828C75.4904 20.5663 66.9443 15.9645 55.2365 15.9645C33.5426 15.9645 16.5757 33.448 16.5757 55.1419C16.5757 76.8358 33.5426 94.3193 55.2365 94.3193C69.3078 94.3193 77.3217 88.6689 82.4557 83.535C86.6191 79.3715 89.3583 73.4237 90.4383 65.3002L55.2365 65.3158Z" fill="#4285F4"/>
</svg>
