<svg width="622" height="120" viewBox="0 0 622 120" fill="none" xmlns="http://www.w3.org/2000/svg">
<path fill-rule="evenodd" clip-rule="evenodd" d="M563.585 91.5917H587.214V0H563.585V91.5917Z" fill="#DE1E34"/>
<path fill-rule="evenodd" clip-rule="evenodd" d="M621.958 0V91.5917H598.333V0H621.958Z" fill="#DE1E34"/>
<path fill-rule="evenodd" clip-rule="evenodd" d="M50.3799 35.5744H31.2705V0H0V91.5917H31.2705V46.1762H50.3799V91.5917H81.6534V0H50.3799V35.5744Z" fill="#DE1E34"/>
<path fill-rule="evenodd" clip-rule="evenodd" d="M197.185 34.0607L195.272 28.0069H169.56V91.5925H195.272V53.3651C195.272 45.0372 200.139 40.4972 204.307 40.4972C207.781 40.4972 212.297 41.2535 212.297 49.5813V91.5925H238.009V50.3387C238.009 27.2506 214.213 18.1693 197.185 34.0607Z" fill="#DE1E34"/>
<path fill-rule="evenodd" clip-rule="evenodd" d="M461.258 64.9077L449.271 28.007H431.724L419.734 66.4214L407.226 28.007H382.73H382.555H372.829L360.491 60.3637L343.119 28.007H313.757L348.331 92.3483L343.814 104.456C342.249 108.244 338.506 108.431 337.773 104.835C337.773 98.3317 332.931 93.0625 326.962 93.0625C320.991 93.0625 316.15 98.3317 316.15 104.835C316.192 111.649 322.445 120.542 334.779 119.974C347.117 119.407 352.327 108.244 354.064 103.512L382.636 28.2549L403.232 91.5925H421.994L433.461 55.0662L445.275 91.5925H462.994L482.973 28.007H472.724L461.258 64.9077Z" fill="#DE1E34"/>
<path fill-rule="evenodd" clip-rule="evenodd" d="M125.952 24.7746C106.279 24.7746 90.3315 40.7089 90.3315 60.3636C90.3315 80.0251 106.279 95.9592 125.952 95.9592C145.63 95.9592 161.58 80.0251 161.58 60.3636C161.58 40.7089 145.63 24.7746 125.952 24.7746ZM134.816 77.0153C134.816 82.3478 130.848 86.6692 125.952 86.6692C121.064 86.6692 117.096 82.3478 117.096 77.0153V43.7148C117.096 38.3862 121.064 34.0686 125.952 34.0686C130.848 34.0686 134.816 38.3862 134.816 43.7148V77.0153Z" fill="#DE1E34"/>
<path fill-rule="evenodd" clip-rule="evenodd" d="M316.613 65.4737C316.801 63.9844 316.897 61.9056 316.897 60.3636C316.897 40.7089 300.948 24.7746 281.273 24.7746C261.596 24.7746 245.646 40.7089 245.646 60.3636C245.646 80.0251 261.596 95.9592 281.273 95.9592C294.792 95.9592 306.551 88.4342 312.589 77.3481L304.72 74.1763C299.964 82.0932 291.244 87.3942 281.273 87.3942C276.378 87.3942 272.41 82.3478 272.41 77.0153V65.4766L316.613 65.4737ZM272.41 43.7148C272.41 38.3862 276.378 34.0686 281.273 34.0686C286.166 34.0686 290.133 38.3862 290.133 43.7148V56.3924H272.41V43.7148Z" fill="#DE1E34"/>
<path fill-rule="evenodd" clip-rule="evenodd" d="M554.622 65.4737C554.814 63.9844 554.91 61.9056 554.91 60.3636C554.91 40.7089 538.961 24.7746 519.284 24.7746C499.609 24.7746 483.66 40.7089 483.66 60.3636C483.66 80.0251 499.609 95.9592 519.284 95.9592C532.805 95.9592 544.564 88.4342 550.602 77.3481L542.733 74.1763C537.977 82.0932 529.257 87.3942 519.284 87.3942C514.391 87.3942 510.424 82.3478 510.424 77.0153V65.4766L554.622 65.4737ZM510.424 43.7148C510.424 38.3862 514.391 34.0686 519.284 34.0686C524.179 34.0686 528.147 38.3862 528.147 43.7148V56.3924H510.424V43.7148Z" fill="#DE1E34"/>
</svg>
