<svg width="576" height="449" viewBox="0 0 576 449" fill="none" xmlns="http://www.w3.org/2000/svg">
<path d="M576 185V201C576 214.255 565.255 225 552 225H544L517.887 407.788C514.509 431.435 494.257 449 470.37 449H105.63C81.743 449 61.491 431.435 58.112 407.788L32 225H24C10.745 225 0 214.255 0 201V185C0 171.745 10.745 161 24 161H91.341L198.121 14.179C208.516 -0.113004 228.528 -3.27401 242.822 7.12099C257.115 17.516 260.275 37.529 249.88 51.822L170.477 161H405.523L326.12 51.821C315.725 37.529 318.886 17.515 333.179 7.11999C347.47 -3.27501 367.485 -0.115004 377.88 14.178L484.659 161H552C565.255 161 576 171.745 576 185ZM312 361V249C312 235.745 301.255 225 288 225C274.745 225 264 235.745 264 249V361C264 374.255 274.745 385 288 385C301.255 385 312 374.255 312 361ZM424 361V249C424 235.745 413.255 225 400 225C386.745 225 376 235.745 376 249V361C376 374.255 386.745 385 400 385C413.255 385 424 374.255 424 361ZM200 361V249C200 235.745 189.255 225 176 225C162.745 225 152 235.745 152 249V361C152 374.255 162.745 385 176 385C189.255 385 200 374.255 200 361Z" fill="#FFD700"/>
</svg>
