<svg width="32" height="32" viewBox="0 0 32 32" fill="none" xmlns="http://www.w3.org/2000/svg">
<path d="M28.584 14.585L25.464 12.713C24.6872 12.2464 23.7981 12 22.892 12H7.781L7.16 9.515C7.05216 9.08215 6.80258 8.69784 6.451 8.42328C6.09942 8.14872 5.66608 7.99972 5.22 8H4C3.46973 8.00053 2.96133 8.21141 2.58637 8.58637C2.21141 8.96133 2.00053 9.46973 2 10V17C2.00079 17.7954 2.31712 18.558 2.87956 19.1204C3.44199 19.6829 4.20459 19.9992 5 20H12V26C12.0005 26.5303 12.2114 27.0387 12.5864 27.4136C12.9613 27.7886 13.4697 27.9995 14 28H15.307C15.7139 27.9988 16.1109 27.874 16.4453 27.6423C16.7798 27.4105 17.036 27.0826 17.18 26.702L19.693 20H27.085C27.7226 20.0002 28.3428 19.7913 28.8503 19.4054C29.3579 19.0194 29.7249 18.4777 29.8951 17.8632C30.0654 17.2487 30.0294 16.5953 29.7928 16.0032C29.5561 15.4111 29.1319 14.9129 28.585 14.585H28.584ZM27.084 18H18.307L15.307 26H14V18H5C4.73478 18 4.48043 17.8946 4.29289 17.7071C4.10536 17.5196 4 17.2652 4 17V10H5.22L6.22 14H10V16H12V14H15V16H17V14H20V16H22V14H22.892C23.4356 14.0001 23.969 14.1481 24.435 14.428L27.555 16.3C27.7267 16.4028 27.86 16.5591 27.9344 16.745C28.0088 16.9308 28.0201 17.1359 27.9668 17.3288C27.9135 17.5217 27.7983 17.6919 27.6391 17.8131C27.4798 17.9343 27.2852 18 27.085 18H27.084Z" fill="#FF9A62"/>
<path d="M14 4H15.323L17.723 10H19.877L17.18 3.257C17.0327 2.88511 16.7767 2.56626 16.4454 2.34203C16.1142 2.1178 15.723 1.99861 15.323 2H14C13.4697 2.00053 12.9613 2.21141 12.5864 2.58637C12.2114 2.96133 12.0005 3.46973 12 4V10H14V4Z" fill="#FF9A62"/>
</svg>
