<svg width="512" height="512" viewBox="0 0 512 512" fill="none" xmlns="http://www.w3.org/2000/svg">
<path d="M116 468C135.778 468 155.112 462.135 171.557 451.147C188.002 440.159 200.819 424.541 208.388 406.268C215.957 387.996 217.937 367.889 214.079 348.491C210.22 329.093 200.696 311.275 186.711 297.289C172.725 283.304 154.907 273.78 135.509 269.921C116.111 266.063 96.0043 268.043 77.7317 275.612C59.459 283.181 43.8412 295.998 32.853 312.443C21.8649 328.888 16 348.222 16 368C16.0299 394.512 26.5752 419.93 45.3224 438.678C64.0695 457.425 89.4875 467.97 116 468V468ZM116 300C129.449 300 142.596 303.988 153.779 311.46C164.961 318.932 173.677 329.552 178.824 341.978C183.971 354.403 185.317 368.075 182.693 381.266C180.07 394.457 173.593 406.573 164.083 416.083C154.573 425.593 142.457 432.07 129.266 434.693C116.075 437.317 102.403 435.971 89.9775 430.824C77.5521 425.677 66.932 416.961 59.4601 405.779C51.9881 394.596 48 381.449 48 368C48.0204 349.972 55.1912 332.687 67.9392 319.939C80.6873 307.191 97.9715 300.02 116 300ZM296 368C296 387.778 301.865 407.112 312.853 423.557C323.841 440.002 339.459 452.819 357.732 460.388C376.004 467.957 396.111 469.937 415.509 466.079C434.907 462.22 452.725 452.696 466.711 438.711C480.696 424.725 490.22 406.907 494.079 387.509C497.937 368.111 495.957 348.004 488.388 329.732C480.819 311.459 468.002 295.841 451.557 284.853C435.112 273.865 415.778 268 396 268C369.488 268.03 344.07 278.575 325.322 297.322C306.575 316.07 296.03 341.488 296 368V368ZM396 300C409.449 300 422.596 303.988 433.779 311.46C444.961 318.932 453.677 329.552 458.824 341.978C463.971 354.403 465.317 368.075 462.693 381.266C460.07 394.457 453.593 406.573 444.083 416.083C434.573 425.593 422.457 432.07 409.266 434.693C396.075 437.317 382.403 435.971 369.978 430.824C357.552 425.677 346.932 416.961 339.46 405.779C331.988 394.596 328 381.449 328 368C328.02 349.972 335.191 332.687 347.939 319.939C360.687 307.191 377.972 300.02 396 300V300Z" fill="#FF9A62"/>
<path d="M317.912 128.176C336.738 128.176 352 112.914 352 94.088C352 75.2617 336.738 60 317.912 60C299.086 60 283.824 75.2617 283.824 94.088C283.824 112.914 299.086 128.176 317.912 128.176Z" fill="#FF9A62"/>
<path d="M190.954 266.3L240 314.69V404H272V311.345C271.991 308.167 271.356 305.023 270.13 302.091C268.904 299.16 267.112 296.499 264.856 294.261L213.582 243.673L280.035 177.22L338.2 236.771C340.44 239.053 343.112 240.867 346.059 242.108C349.006 243.349 352.171 243.992 355.369 244H384V212H358.738L266.251 117.312L265.776 117.776L257.376 109.376L145.376 221.376L190.63 266.63L190.954 266.3Z" fill="#FF9A62"/>
</svg>
