<svg width="508" height="144" viewBox="0 0 508 144" fill="none" xmlns="http://www.w3.org/2000/svg">
<path d="M27.0864 0.709449C16.7184 5.05185 5.30722 17.3206 1.70402 32.7203C-2.8579 52.232 16.1258 60.4835 17.6829 57.7776C19.5152 54.5987 14.2813 53.5235 13.2029 43.4C11.8103 30.3248 17.889 15.7136 25.5395 9.30337C26.9616 8.11297 26.8938 9.77057 26.8938 12.8362L26.5911 77.8154C26.5911 91.7162 26.017 96.1066 24.9859 100.443C23.9408 104.839 22.2615 107.81 23.5344 108.953C24.9565 110.233 31.0288 107.188 34.5424 102.283C38.7575 96.399 40.232 89.3334 40.4976 81.6598C40.8176 72.4099 40.8048 57.7322 40.8176 49.359L40.6896 5.67905C40.6256 2.36385 31.4301 -1.11455 27.0909 0.703048L27.0864 0.709449ZM395.492 65.761C395.157 72.9878 393.558 78.6358 391.573 82.6205C387.73 90.3338 379.754 92.7286 376.368 81.6413C374.523 75.5971 374.436 65.5031 375.763 57.0685C377.107 48.4765 380.884 41.9869 387.129 42.5725C393.288 43.151 396.171 51.087 395.493 65.7616L395.492 65.761ZM291.656 110.599C291.573 122.606 289.683 133.134 285.63 136.199C279.883 140.535 272.157 137.282 273.757 128.52C275.173 120.766 281.866 112.848 291.673 103.173L291.657 110.605L291.656 110.599ZM290.086 65.6931C289.734 72.2749 288.029 78.8874 286.167 82.6237C282.324 90.337 274.291 92.7485 270.962 81.6445C268.685 74.0573 269.23 64.2378 270.357 58.0509C271.819 50.0234 275.362 42.5757 281.723 42.5757C287.909 42.5757 290.958 49.3616 290.087 65.6938L290.086 65.6931ZM229.937 65.5927C229.559 72.5635 228.2 78.3914 226.018 82.623C222.069 90.2838 214.258 92.7126 210.812 81.6438C208.329 73.6618 209.174 62.7786 210.208 56.8995C211.741 48.175 215.58 41.9894 221.574 42.5763C227.731 43.1779 230.724 51.0902 229.938 65.5939L229.937 65.5927ZM505.589 73.7347C504.083 73.7347 503.397 75.2861 502.829 77.8973C500.858 86.977 498.787 89.0333 496.109 89.0333C493.125 89.0333 490.443 84.5373 489.754 75.5376C489.212 68.4611 489.299 55.4326 489.992 42.4733C490.133 39.8109 489.399 37.176 482.257 34.5821C479.184 33.4659 474.716 31.8237 472.492 37.192C466.208 52.36 463.75 64.4029 463.171 69.2944C463.141 69.5478 462.83 69.5991 462.776 69.0077C462.407 65.0896 461.583 57.9696 461.481 43.0096C461.461 40.0912 460.843 37.6067 457.621 35.5728C455.531 34.2531 449.184 31.9184 446.898 34.696C444.918 36.968 442.625 43.08 440.242 50.3248L436.956 60.1968L437.005 38.2813C437.015 36.0074 435.456 35.2502 434.986 35.1133C432.869 34.4989 428.699 33.4723 426.922 33.4723C424.738 33.4723 424.203 34.6934 424.203 36.472L423.858 71.8557L423.864 73.8973C422.656 80.5456 418.738 89.5709 414.477 89.5709C410.212 89.5709 408.205 85.7981 408.205 68.5533C408.205 58.4938 408.507 54.1194 408.656 46.8445L408.899 38.705C408.867 36.465 404.995 35.3366 403.193 34.9194C401.381 34.4989 399.809 34.3357 398.58 34.4054C396.841 34.5034 395.611 35.6445 395.611 37.2131L395.62 39.6541C393.38 36.1341 389.779 33.6854 387.382 32.9757C380.927 31.0589 374.192 32.7581 369.11 39.8666C365.072 45.5152 362.638 51.9133 361.686 61.1056C360.986 67.8256 361.214 74.6403 362.459 80.4035C360.955 86.9059 358.163 89.5709 355.106 89.5709C350.667 89.5709 347.449 82.3261 347.822 69.7949C348.069 61.553 349.718 55.7686 351.522 47.4013C352.29 43.8339 351.666 41.9664 350.1 40.177C348.663 38.5354 345.602 37.697 341.201 38.7286C338.066 39.4646 333.585 40.255 329.484 40.8624C329.484 40.8624 329.732 39.8755 329.935 38.1347C331.001 29.0083 321.084 29.7482 317.919 32.6627C316.031 34.4035 314.745 36.456 314.256 40.1469C313.482 46.0042 318.26 48.7664 318.26 48.7664C316.692 55.9344 312.85 65.313 308.884 72.088C306.759 75.7181 305.133 78.4086 303.036 81.2682L303.019 78.079L303.26 46.847L303.505 38.7933C303.481 37.1549 302.524 36.5366 300.535 35.7533C298.775 35.0608 296.695 34.5808 294.539 34.4138C291.815 34.2013 290.174 35.6458 290.217 37.3539C290.226 37.6765 290.226 39.6566 290.226 39.6566C287.986 36.1366 284.384 33.688 281.988 32.9782C275.533 31.0621 268.797 32.7606 263.716 39.8691C259.678 45.5178 257.034 53.4448 256.292 61.0378C255.588 68.1149 255.722 74.129 256.674 79.1946C255.647 84.2678 252.696 89.5728 249.36 89.5728C245.094 89.5728 242.667 85.8 242.667 68.5552C242.667 58.4957 242.969 54.1213 243.117 46.8464L243.36 38.7069C243.328 36.4669 239.456 35.3386 237.654 34.9206C235.769 34.4854 234.134 34.3242 232.891 34.4163C231.241 34.5392 230.081 36.0163 230.081 37.1171V39.6554C227.841 36.1354 224.24 33.6867 221.843 32.977C215.388 31.0608 208.69 32.7869 203.571 39.8678C200.233 44.4854 197.531 49.6042 196.147 60.9366C195.745 64.2115 195.568 67.2778 195.59 70.1443C194.259 78.2839 188.381 87.665 183.572 87.665C180.758 87.665 178.078 82.207 178.078 70.5757C178.078 55.0813 179.037 33.0224 179.2 30.8957L186.451 30.7786C189.481 30.7453 192.226 30.817 196.262 30.6102C198.286 30.5078 200.236 23.2413 198.148 22.3414C197.2 21.9344 190.507 21.5779 187.854 21.5222C185.623 21.471 179.412 21.0122 179.412 21.0122L180.099 4.82337C180.209 3.53441 178.541 2.87137 177.584 2.46817C175.258 1.48449 173.177 1.01345 170.71 0.505289C167.303 -0.197431 165.757 0.489927 165.454 3.36609C165.006 7.73089 164.763 20.5155 164.763 20.5155C162.263 20.5155 153.721 20.0266 151.22 20.0266C148.896 20.0266 146.388 30.0214 149.6 30.145L164.011 30.5418L163.828 62.0215C161.477 74.273 153.198 80.8912 153.198 80.8912C154.976 72.7862 151.344 66.6999 144.801 61.5472C142.391 59.6483 137.633 56.0541 132.308 52.1155C132.308 52.1155 135.392 49.0768 138.132 42.9635C140.069 38.6326 140.153 33.6771 135.398 32.584C127.54 30.7773 121.062 36.5475 119.129 42.7088C117.632 47.4813 118.43 51.0224 121.363 54.7024C121.577 54.9712 121.809 55.2464 122.049 55.5216C120.275 58.9405 117.838 63.5434 115.775 67.112C110.047 77.0224 105.719 84.8611 102.45 84.8611C99.8359 84.8611 99.871 76.9027 99.871 69.4512C99.871 63.0275 100.345 53.3699 100.724 43.3712C100.85 40.0643 99.1959 38.1808 96.4234 36.4739C94.7402 35.4371 91.1447 33.3994 89.0634 33.3994C85.9466 33.3994 76.9578 33.8231 68.4637 58.3939C67.393 61.4915 65.2893 67.1338 65.2893 67.1338L65.4704 37.5869C65.4704 36.8944 65.1018 36.2237 64.2563 35.7661C62.8253 34.9891 59.0083 33.3994 55.6035 33.3994C53.9843 33.3994 53.1754 34.1526 53.1754 35.6541L52.8791 81.8813C52.8791 85.3936 52.9706 89.4973 53.3181 91.2829C53.6656 93.0685 54.2243 94.5366 54.9181 95.4045C55.6119 96.2723 56.4131 96.9328 57.7354 97.2054C58.9661 97.4589 65.7034 98.3242 66.0541 95.7494C66.4739 92.6646 66.4893 89.3258 70.0285 76.8784C75.5363 57.4992 82.7178 48.0432 86.0938 44.6851C86.6839 44.0982 87.3578 44.063 87.3258 45.0243L86.3338 68.9091C85.4186 93.0467 89.8102 97.521 96.0854 97.521C100.886 97.521 107.653 92.751 114.901 80.6762L126.971 60.4554L134.102 67.0218C139.832 72.4598 141.713 77.6278 140.465 82.529C139.51 86.2768 135.915 90.145 129.516 86.385C127.652 85.2906 126.855 84.4438 124.98 83.2086C123.973 82.5456 122.434 82.3472 121.511 83.0422C119.116 84.8483 117.746 87.1459 116.963 89.9907C116.201 92.7587 118.974 94.2211 121.847 95.4947C124.322 96.5955 129.639 97.5939 133.031 97.7078C146.245 98.1558 156.83 91.327 164.199 73.7302C165.517 88.9277 171.132 97.528 180.885 97.528C187.406 97.528 193.943 89.0992 196.802 80.8074C197.622 84.1866 198.837 87.1267 200.406 89.6118C207.922 101.52 222.501 98.9558 229.825 88.8451C232.089 85.7206 232.434 84.5981 232.434 84.5981C233.503 94.1456 241.191 97.4813 245.593 97.4813C250.523 97.4813 255.614 95.1504 259.182 87.1178C259.6 87.9894 260.056 88.8221 260.555 89.6112C268.07 101.519 282.65 98.9552 289.973 88.8445C290.283 88.4193 290.585 87.989 290.88 87.5536L291.095 93.8256L284.353 100.009C273.065 110.364 264.483 118.222 263.851 127.371C263.041 139.038 272.502 143.373 279.66 143.941C287.262 144.544 293.772 140.344 297.772 134.469C301.293 129.296 303.595 118.163 303.426 107.168L303.161 91.1651C307.129 86.5571 311.598 80.735 315.714 73.919C320.199 66.4912 325.006 56.5162 327.467 48.753C327.467 48.753 331.643 48.7888 336.1 48.497C337.526 48.4042 337.935 48.6954 337.672 49.7398C337.354 51.0026 332.041 71.4934 336.889 85.1446C340.208 94.4886 347.689 97.4966 352.125 97.4966C357.317 97.4966 362.284 93.5754 364.946 87.7526C365.266 88.4016 365.602 89.0301 365.968 89.6099C373.484 101.518 388.012 98.9392 395.387 88.8432C397.051 86.5648 397.996 84.5962 397.996 84.5962C399.579 94.4778 407.264 97.5306 411.665 97.5306C416.25 97.5306 420.601 95.6509 424.132 87.297C424.279 90.975 424.512 93.9824 424.878 94.9302C425.102 95.5101 426.405 96.2378 427.353 96.5898C431.547 98.145 435.824 97.409 437.401 97.089C438.497 96.8669 439.353 95.9882 439.468 93.7162C439.775 87.7526 439.586 77.7328 441.388 70.2858C444.423 57.7885 447.253 52.9418 448.596 50.5418C449.348 49.1978 450.196 48.975 450.227 50.3984C450.291 53.2784 450.434 61.7328 451.609 73.0947C452.473 81.4499 453.625 86.3888 454.512 87.9517C457.042 92.4214 460.166 92.6333 462.704 92.6333C464.324 92.6333 467.707 92.1853 467.404 89.3418C467.257 87.9555 467.515 79.3872 470.507 67.0749C472.461 59.0346 475.718 51.7699 476.893 49.1139C477.326 48.1347 477.528 48.9066 477.52 49.0563C477.273 54.5936 476.718 72.7043 478.973 82.6096C482.031 96.0285 490.877 97.5299 493.959 97.5299C500.539 97.5299 505.92 92.5251 507.734 79.3539C508.171 76.184 507.524 73.7366 505.587 73.7366" fill="black"/>
</svg>
